<svg xmlns="http://www.w3.org/2000/svg" width="21.268" height="12.679" viewBox="0 0 21.268 12.679">
  <g id="voucher" transform="translate(0 -103.385)">
    <g id="Group_91" data-name="Group 91" transform="translate(0 103.385)">
      <g id="Group_90" data-name="Group 90">
        <path id="Path_56" data-name="Path 56" d="M20.655,107.884a.614.614,0,0,0,.613-.613V104a.614.614,0,0,0-.613-.614H.613A.614.614,0,0,0,0,104v3.272a.614.614,0,0,0,.613.613,1.841,1.841,0,1,1,0,3.681.614.614,0,0,0-.613.614v3.272a.613.613,0,0,0,.613.613H20.655a.613.613,0,0,0,.613-.613v-3.272a.614.614,0,0,0-.613-.614,1.841,1.841,0,1,1,0-3.681Zm-.613,4.846v2.107H7.158V113a.613.613,0,0,0-1.227,0v1.841h-4.7V112.73a3.068,3.068,0,0,0,0-6.012v-2.107h4.7v1.841a.613.613,0,1,0,1.227,0v-1.841H20.041v2.107a3.068,3.068,0,0,0,0,6.012Z" transform="translate(0 -103.385)" fill="#444"/>
      </g>
    </g>
    <g id="Group_93" data-name="Group 93" transform="translate(5.931 108.293)">
      <g id="Group_92" data-name="Group 92">
        <path id="Path_57" data-name="Path 57" d="M143.382,221.538a.613.613,0,0,0-.614.613v1.636a.614.614,0,0,0,1.227,0v-1.636A.613.613,0,0,0,143.382,221.538Z" transform="translate(-142.769 -221.538)" fill="#444"/>
      </g>
    </g>
  </g>
</svg>
